# xmcd CD database file
#
# Track frame offsets:
#	150
#	17866
#	36517
#	53402
#	77855
#	92954
#	106708
#	129040
#	147352
#	166521
#	180696
#	193895
#
# Disc length: 2844 seconds
#
# Revision: 0
# Processed by: cddbd v1.5.2PL0 Copyright (c) Steve Scherf et al.
# Submitted via: CDex 1.51
#
DISCID=960b1a0c
DTITLE=Lady Antebellum - Need You Now
DYEAR=2010
DGENRE=Country
TTITLE0=Need You Now
TTITLE1=Our Kind Of Love
TTITLE2=American Honey
TTITLE3=Hello World
TTITLE4=Perfect Day
TTITLE5=Love This Pain
TTITLE6=When You Got A Good Thing
TTITLE7=Stars Tonight
TTITLE8=If I Knew Then
TTITLE9=Lookin' For A Good Time
TTITLE10=Ready To Love Again
TTITLE11=I Run To You (Bonus Track)
EXTD=YEAR: 2010
EXTT0=
EXTT1=
EXTT2=
EXTT3=
EXTT4=
EXTT5=
EXTT6=
EXTT7=
EXTT8=
EXTT9=
EXTT10=
EXTT11=
PLAYORDER=
